<mxfile host="app.diagrams.net" modified="2020-09-11T08:30:26.186Z" agent="5.0 (Macintosh; Intel Mac OS X 10_15_5) AppleWebKit/537.36 (KHTML, like Gecko) Chrome/85.0.4183.102 Safari/537.36" etag="oil3A8SiErBHAqrbsl8W" version="13.6.9" type="github">
  <diagram id="NHfA0k9z1eQKoBuckNd4" name="第 1 页">
    <mxGraphModel dx="1245" dy="811" grid="1" gridSize="10" guides="1" tooltips="1" connect="1" arrows="1" fold="1" page="1" pageScale="1" pageWidth="827" pageHeight="1169" math="0" shadow="0">
      <root>
        <mxCell id="0" />
        <mxCell id="1" parent="0" />
        <mxCell id="34jCwZYlJebGgizJhJBP-3" value="" style="edgeStyle=orthogonalEdgeStyle;rounded=0;orthogonalLoop=1;jettySize=auto;html=1;" edge="1" parent="1" source="34jCwZYlJebGgizJhJBP-1" target="34jCwZYlJebGgizJhJBP-2">
          <mxGeometry relative="1" as="geometry" />
        </mxCell>
        <mxCell id="34jCwZYlJebGgizJhJBP-1" value="" style="ellipse;whiteSpace=wrap;html=1;" vertex="1" parent="1">
          <mxGeometry x="350" y="380" width="120" height="80" as="geometry" />
        </mxCell>
        <mxCell id="34jCwZYlJebGgizJhJBP-2" value="" style="shape=tape;whiteSpace=wrap;html=1;" vertex="1" parent="1">
          <mxGeometry x="550" y="370" width="120" height="100" as="geometry" />
        </mxCell>
      </root>
    </mxGraphModel>
  </diagram>
</mxfile>
